<svg width="48" height="47" viewBox="0 0 48 47" fill="none" xmlns="http://www.w3.org/2000/svg">
<path d="M46.3804 28.9702C43.2921 41.3578 30.7455 48.8966 18.3565 45.8075C5.97269 42.7193 -1.56613 30.1719 1.5235 17.7854C4.61041 5.39646 17.157 -2.14293 29.5422 0.945343C41.9303 4.03361 49.4687 16.5823 46.3801 28.9705L46.3803 28.9702H46.3804Z" fill="#F3BA2F"/>
<path fill-rule="evenodd" clip-rule="evenodd" d="M23.9542 14.9287L17.9666 20.9163L17.9667 20.9161L14.483 17.4322L23.9542 7.96094L33.4286 17.435L29.9447 20.9189L23.9542 14.9287ZM12.0228 19.8921L8.53876 23.3766L12.0225 26.8599L15.5065 23.3759L12.0228 19.8921ZM17.9666 25.8368L23.9542 31.8241L29.9446 25.834L33.4303 29.316L33.4286 29.3179L23.9542 38.7919L14.483 29.3206L14.478 29.3157L17.9666 25.8368ZM35.8859 19.894L32.4019 23.3781L35.8858 26.8618L39.3697 23.3778L35.8859 19.894Z" fill="white"/>
<path d="M27.4877 23.3746H27.4892L23.9542 19.8394L21.3414 22.4515L21.0412 22.7518L20.4221 23.371L20.4172 23.3758L20.4221 23.3808L23.9542 26.9135L27.4894 23.3783L27.4911 23.3763L27.4879 23.3746" fill="white"/>
</svg>
