<svg width="32" height="32" viewBox="0 0 32 32" fill="none" xmlns="http://www.w3.org/2000/svg">
<path d="M31.261 20.0015C29.1826 28.3383 20.7388 33.412 12.401 31.333C4.06663 29.2546 -1.007 20.8102 1.07232 12.4741C3.14982 4.13632 11.5937 -0.937694 19.9289 1.14072C28.2661 3.21912 33.3395 11.6644 31.2608 20.0016L31.261 20.0015H31.261Z" fill="#F3BA2F"/>
<path fill-rule="evenodd" clip-rule="evenodd" d="M16.1682 10.5516L12.1385 14.5813L12.1386 14.5811L9.794 12.2365L16.1682 5.8623L22.5444 12.2384L20.1997 14.583L16.1682 10.5516ZM8.1383 13.8918L5.79355 16.2369L8.13813 18.5812L10.4829 16.2364L8.1383 13.8918ZM12.1385 17.8928L16.1682 21.9222L20.1997 17.8909L22.5456 20.2343L22.5444 20.2356L16.1682 26.6116L9.794 20.2374L9.79068 20.2341L12.1385 17.8928ZM24.1982 13.8932L21.8535 16.2379L24.1981 18.5825L26.5428 16.2377L24.1982 13.8932Z" fill="white"/>
<path d="M18.5462 16.2356H18.5472L16.1682 13.8564L14.4097 15.6144L14.2077 15.8165L13.791 16.2332L13.7877 16.2365L13.791 16.2399L16.1682 18.6173L18.5473 16.2381L18.5485 16.2368L18.5464 16.2356" fill="white"/>
</svg>
