<svg width="21" height="21" viewBox="0 0 21 21" fill="none" xmlns="http://www.w3.org/2000/svg">
<g clip-path="url(#clip0_63_523)">
<path d="M2.625 2.625V17.5C2.625 17.7321 2.71719 17.9546 2.88128 18.1187C3.04538 18.2828 3.26794 18.375 3.5 18.375H22.9091V16.625H4.375V2.625H2.625Z" fill="#666666"/>
<path d="M13.3814 12.8686C13.4626 12.9499 13.559 13.0144 13.6651 13.0585C13.7713 13.1025 13.8851 13.1251 14 13.1251C14.1149 13.1251 14.2287 13.1025 14.3349 13.0585C14.441 13.0144 14.5374 12.9499 14.6186 12.8686L18.9936 8.4936L17.7564 7.25635L14 11.0127L11.9936 9.00635C11.9124 8.92502 11.816 8.8605 11.7099 8.81648C11.6037 8.77246 11.4899 8.7498 11.375 8.7498C11.2601 8.7498 11.1463 8.77246 11.0401 8.81648C10.934 8.8605 10.8376 8.92502 10.7564 9.00635L6.38138 13.3813L7.61863 14.6186L11.375 10.8622L13.3814 12.8686Z" fill="#666666"/>
</g>
<defs>
<clipPath id="clip0_63_523">
<rect width="21" height="21" fill="white"/>
</clipPath>
</defs>
</svg>
