<svg width="46" height="46" viewBox="0 0 46 46" fill="none" xmlns="http://www.w3.org/2000/svg">
<rect width="46" height="46" rx="16" fill="#F8F8F8"/>
<path fill-rule="evenodd" clip-rule="evenodd" d="M18.822 12.3874C19.6581 11.6977 20.0761 11.3529 20.4869 11.3911C20.7586 11.4164 21.0084 11.5518 21.178 11.7657C21.4342 12.089 21.35 12.8354 21.1816 14.3283C20.8689 17.1003 21.6372 19.9908 23.5525 22.3127C25.4678 24.6346 28.1596 25.9385 30.9405 26.1586C32.4381 26.2771 33.1869 26.3364 33.4556 26.6494C33.6334 26.8565 33.7188 27.1275 33.692 27.3991C33.6514 27.8096 33.2333 28.1545 32.3972 28.8441C27.8528 32.5928 21.13 31.9478 17.3813 27.4034C13.6326 22.859 14.2776 16.1361 18.822 12.3874Z" fill="#3C3C3C"/>
</svg>
