<svg width="28" height="27" viewBox="0 0 28 27" fill="none" xmlns="http://www.w3.org/2000/svg">
<path d="M16.5502 3.50191V24.2217C16.5502 24.3527 16.6574 24.4599 16.7884 24.4599H18.5748C18.7059 24.4599 18.8131 24.3527 18.8131 24.2217V6.20241L24.2617 10.4988C24.4166 10.6209 24.6488 10.5107 24.6488 10.3112V8.15261C24.6488 8.00672 24.5833 7.86976 24.4671 7.77746L18.0925 2.7516C17.4673 2.26031 16.5502 2.70396 16.5502 3.50191ZM9.52353 2.78435V20.8036L4.07488 16.5072C3.92005 16.3852 3.68781 16.4953 3.68781 16.6948V18.8535C3.68781 18.9994 3.75332 19.1363 3.86943 19.2286L10.2441 24.2545C10.8693 24.7457 11.7864 24.302 11.7864 23.5072V2.78435C11.7864 2.65334 11.6792 2.54615 11.5482 2.54615H9.76173C9.63073 2.54615 9.52353 2.65334 9.52353 2.78435Z" fill="black" fill-opacity="0.6"/>
</svg>
