<svg width="19" height="19" viewBox="0 0 19 19" fill="none" xmlns="http://www.w3.org/2000/svg">
<path d="M10.8914 3.44273L10.0066 3.53122L10.0066 3.53122L10.8914 3.44273ZM10.8377 3.06809L9.98574 3.32309L9.98575 3.3231L10.8377 3.06809ZM10.9933 4.11273L11.8191 3.78294V3.78294L10.9933 4.11273ZM12.1699 4.6001L12.5206 5.41725L12.1699 4.6001ZM12.7156 4.19838L13.2788 4.88662V4.88662L12.7156 4.19838ZM13.0185 3.97149L13.4406 4.75419L13.4406 4.75418L13.0185 3.97149ZM13.9385 4.01737L14.4364 3.28056L14.4364 3.28056L13.9385 4.01737ZM14.2173 4.27328L13.5885 4.90207V4.90207L14.2173 4.27328ZM14.8794 4.93539L14.2506 5.56418L14.2506 5.56419L14.8794 4.93539ZM15.1353 5.21419L14.3985 5.71207L14.3985 5.71207L15.1353 5.21419ZM15.1812 6.13416L15.9639 6.55625L15.9639 6.55624L15.1812 6.13416ZM14.9543 6.43704L14.266 5.8739L14.2599 5.88153L14.9543 6.43704ZM14.9543 6.43705L15.6426 7.00019L15.6487 6.99256L14.9543 6.43705ZM14.5526 6.98281L13.7355 6.63204L13.7355 6.63205L14.5526 6.98281ZM15.04 8.15942L14.7102 8.98526L15.04 8.15942ZM15.71 8.26129L15.6215 9.14613L15.71 8.26129ZM16.0846 8.31503L16.3396 7.46312L16.3396 7.46312L16.0846 8.31503ZM16.7026 8.99798L17.5757 8.82902V8.82901L16.7026 8.99798ZM16.7027 10.6905L17.5757 10.8594V10.8594L16.7027 10.6905ZM16.0845 11.3735L16.3395 12.2254L16.3395 12.2254L16.0845 11.3735ZM15.71 11.4272L15.6215 10.5424L15.5925 10.5453L15.5638 10.5501L15.71 11.4272ZM15.71 11.4272L15.7985 12.3121L15.8274 12.3092L15.8562 12.3044L15.71 11.4272ZM15.0403 11.529L15.37 12.3549L15.37 12.3549L15.0403 11.529ZM14.5529 12.7058L15.37 12.3549L15.37 12.3549L14.5529 12.7058ZM14.9544 13.2513L14.2662 13.8144L14.2662 13.8144L14.9544 13.2513ZM15.1812 13.5541L14.3985 13.9762L14.3985 13.9762L15.1812 13.5541ZM15.1353 14.4741L15.8721 14.9721L15.8721 14.9721L15.1353 14.4741ZM14.8795 14.7528L15.5083 15.3816L15.5083 15.3816L14.8795 14.7528ZM14.2173 15.415L14.8461 16.0438L14.8461 16.0438L14.2173 15.415ZM13.9385 15.6709L14.4364 16.4077L14.4364 16.4077L13.9385 15.6709ZM13.0186 15.7168L13.4406 14.9341L13.4406 14.9341L13.0186 15.7168ZM12.7157 15.4899L12.1464 16.1731L12.1526 16.1782L12.7157 15.4899ZM12.7157 15.4899L13.285 14.8068L13.2674 14.7922L13.2492 14.7785L12.7157 15.4899ZM12.7157 15.4899L12.1525 16.1781L12.1671 16.19L12.1821 16.2013L12.7157 15.4899ZM12.1699 15.0882L11.8191 15.9053L11.8191 15.9053L12.1699 15.0882ZM10.9933 15.5756L11.8191 15.9053L10.9933 15.5756ZM10.8914 16.2457L10.0066 16.1572V16.1572L10.8914 16.2457ZM10.8376 16.6206L11.6895 16.8756L11.6895 16.8756L10.8376 16.6206ZM10.1548 17.2385L10.3238 18.1116H10.3238L10.1548 17.2385ZM8.46212 17.2385L8.29316 18.1116L8.29316 18.1116L8.46212 17.2385ZM7.77919 16.6205L6.92728 16.8755V16.8755L7.77919 16.6205ZM7.72544 16.2458L6.8406 16.3343L6.8406 16.3343L7.72544 16.2458ZM7.62356 15.5758L6.79773 15.9056L6.79773 15.9056L7.62356 15.5758ZM6.44698 15.0885L6.79773 15.9056L6.79773 15.9056L6.44698 15.0885ZM5.90116 15.4902L5.33805 14.802L5.32397 14.8135L5.31037 14.8256L5.90116 15.4902ZM5.90114 15.4902L6.46425 16.1785L6.47833 16.1669L6.49193 16.1549L5.90114 15.4902ZM5.59822 15.7171L6.02029 16.4998L6.02029 16.4998L5.59822 15.7171ZM4.6783 15.6713L5.17615 14.9344L5.17615 14.9344L4.6783 15.6713ZM4.39947 15.4153L3.77067 16.0441L3.77067 16.0441L4.39947 15.4153ZM4.39945 15.4153L3.77065 16.0441H3.77065L4.39945 15.4153ZM3.73738 14.7532L4.36618 14.1244L3.73738 14.7532ZM3.73737 14.7532L3.10857 15.382L3.10857 15.382L3.73737 14.7532ZM3.48144 14.4744L4.21827 13.9765L4.21827 13.9765L3.48144 14.4744ZM3.43556 13.5545L2.65285 13.1324L2.65285 13.1324L3.43556 13.5545ZM3.66249 13.2515L4.35073 13.8146L4.35073 13.8146L3.66249 13.2515ZM4.06425 12.7057L3.24708 12.355L3.24708 12.355L4.06425 12.7057ZM3.5769 11.5291L3.90671 10.7033L3.9067 10.7033L3.5769 11.5291ZM2.90685 11.4272L2.99533 10.5424H2.99533L2.90685 11.4272ZM2.53219 11.3735L2.78721 10.5216L2.7872 10.5216L2.53219 11.3735ZM1.91415 10.6906L1.0411 10.8595L1.0411 10.8595L1.91415 10.6906ZM1.91416 8.99791L2.7872 9.16694L2.7872 9.16694L1.91416 8.99791ZM2.53214 8.31505L2.7872 9.16694H2.7872L2.53214 8.31505ZM2.9069 8.26128L2.83305 7.3751L2.82572 7.37571L2.81841 7.37644L2.9069 8.26128ZM2.90691 8.26128L2.98076 9.14746L2.98809 9.14685L2.9954 9.14612L2.90691 8.26128ZM3.57718 8.15935L3.24729 7.33355H3.24729L3.57718 8.15935ZM4.06448 6.98289L3.24729 7.33355L3.24729 7.33355L4.06448 6.98289ZM3.66258 6.43683L4.35082 5.87372L4.35082 5.87372L3.66258 6.43683ZM3.43554 6.13373L4.21828 5.71173L4.21828 5.71173L3.43554 6.13373ZM3.48141 5.21395L2.74454 4.71616L2.74454 4.71616L3.48141 5.21395ZM3.73747 4.93496L4.36626 5.56375L4.36626 5.56375L3.73747 4.93496ZM4.39946 4.27296L3.77066 3.64416H3.77066L4.39946 4.27296ZM4.67832 4.01702L5.17617 4.75385L4.67832 4.01702ZM5.59823 3.97114L5.17617 4.75385H5.17617L5.59823 3.97114ZM5.90123 4.19811L6.46434 3.50987L6.46433 3.50986L5.90123 4.19811ZM6.44691 4.59978L6.79776 3.78267L6.79776 3.78266L6.44691 4.59978ZM7.62363 4.11237L8.44951 4.44207L8.44951 4.44207L7.62363 4.11237ZM7.72545 3.44264L8.61029 3.53112V3.53112L7.72545 3.44264ZM7.77916 3.06816L8.63109 3.32309L8.63109 3.32309L7.77916 3.06816ZM8.4622 2.45002L8.63109 3.32309H8.63109L8.4622 2.45002ZM10.1547 2.45004L10.3237 1.57698L10.3237 1.57698L10.1547 2.45004ZM11.7762 3.35425C11.7607 3.19889 11.7445 2.99677 11.6896 2.81309L9.98575 3.3231C9.97914 3.30103 9.98012 3.29469 9.98505 3.33131C9.99051 3.3719 9.9962 3.42764 10.0066 3.53122L11.7762 3.35425ZM11.8191 3.78294C11.8368 3.82729 11.832 3.83865 11.8193 3.74843C11.8073 3.66355 11.7954 3.54626 11.7762 3.35425L10.0066 3.53122C10.0243 3.70821 10.04 3.86767 10.0582 3.99642C10.0755 4.11982 10.1032 4.28168 10.1674 4.44252L11.8191 3.78294ZM11.8191 3.78294L11.8191 3.78294L10.1674 4.44252C10.5383 5.37123 11.6017 5.8117 12.5206 5.41725L11.8191 3.78294ZM12.1525 3.51014C12.0032 3.63232 11.9118 3.70685 11.8434 3.75841C11.7706 3.81322 11.7752 3.80178 11.8191 3.78294L12.5206 5.41725C12.6798 5.34893 12.8138 5.25405 12.9133 5.17907C13.0172 5.10086 13.1411 4.99926 13.2788 4.88662L12.1525 3.51014ZM12.5965 3.18879C12.4277 3.27979 12.2734 3.41127 12.1525 3.51014L13.2788 4.88662C13.3593 4.82072 13.4028 4.78533 13.4353 4.76049C13.4647 4.73808 13.4609 4.74325 13.4406 4.75419L12.5965 3.18879ZM14.4364 3.28056C13.8879 2.90997 13.1791 2.87461 12.5965 3.18879L13.4406 4.75418V4.75419L14.4364 3.28056ZM14.8461 3.64448C14.7357 3.53408 14.5952 3.38789 14.4364 3.28056L13.4406 4.75418C13.4215 4.74129 13.4183 4.73576 13.4453 4.76099C13.4752 4.78894 13.5149 4.82848 13.5885 4.90207L14.8461 3.64448ZM15.5082 4.30659L14.8461 3.64448L13.5885 4.90207L14.2506 5.56418L15.5082 4.30659ZM15.8721 4.71632C15.7648 4.55747 15.6186 4.41698 15.5082 4.30659L14.2506 5.56419C14.3242 5.63778 14.3638 5.67748 14.3917 5.7074C14.4169 5.7344 14.4114 5.73115 14.3985 5.71207L15.8721 4.71632ZM15.9639 6.55624C16.2781 5.97365 16.2427 5.26477 15.8721 4.71632L14.3985 5.71207H14.3985L15.9639 6.55624ZM15.6426 7.00015C15.7414 6.87932 15.8729 6.72499 15.9639 6.55625L14.3985 5.71207C14.4094 5.6918 14.4146 5.68801 14.3922 5.71739C14.3674 5.74994 14.332 5.79338 14.2661 5.87393L15.6426 7.00015ZM15.6487 6.99256L15.6487 6.99256L14.2599 5.88153L14.2599 5.88154L15.6487 6.99256ZM15.3698 7.33358C15.3509 7.37746 15.3395 7.38209 15.3943 7.30931C15.4459 7.24085 15.5204 7.1495 15.6426 7.00016L14.2661 5.87394C14.1534 6.01161 14.0518 6.13551 13.9736 6.23935C13.8987 6.3389 13.8038 6.4729 13.7355 6.63204L15.3698 7.33358ZM15.3698 7.33358L13.7355 6.63205C13.341 7.55099 13.7815 8.6144 14.7102 8.98526L15.3698 7.33358ZM15.7984 7.37645C15.6064 7.35725 15.4891 7.34535 15.4043 7.33339C15.314 7.32069 15.3254 7.31587 15.3698 7.33358L14.7102 8.98526C14.871 9.04949 15.0329 9.07715 15.1563 9.09453C15.285 9.11266 15.4445 9.12843 15.6215 9.14613L15.7984 7.37645ZM16.3396 7.46312C16.1559 7.40814 15.9538 7.39198 15.7984 7.37645L15.6215 9.14613C15.725 9.15648 15.7808 9.16218 15.8214 9.16764C15.858 9.17256 15.8517 9.17354 15.8296 9.16694L16.3396 7.46312ZM17.5757 8.82901C17.4499 8.17917 16.9737 7.65293 16.3396 7.46312L15.8296 9.16694V9.16694L17.5757 8.82901ZM17.6081 9.37609C17.6081 9.21996 17.6121 9.01724 17.5757 8.82902L15.8296 9.16694C15.8252 9.14433 15.8268 9.13812 15.8281 9.17505C15.8295 9.21597 15.8296 9.27201 15.8296 9.37609H17.6081ZM17.6081 10.3125V9.37609H15.8296V10.3125H17.6081ZM17.5757 10.8594C17.6121 10.6712 17.6081 10.4686 17.6081 10.3125H15.8296C15.8296 10.4166 15.8295 10.4726 15.8281 10.5135C15.8268 10.5504 15.8252 10.5442 15.8296 10.5216L17.5757 10.8594ZM16.3395 12.2254C16.9737 12.0357 17.45 11.5093 17.5757 10.8594L15.8296 10.5216L15.8296 10.5216L16.3395 12.2254ZM15.7985 12.3121C15.9538 12.2965 16.1559 12.2804 16.3395 12.2254L15.8296 10.5216C15.8517 10.515 15.858 10.516 15.8214 10.5209C15.7808 10.5264 15.7251 10.532 15.6215 10.5424L15.7985 12.3121ZM15.8562 12.3044L15.8562 12.3044L15.5638 10.5501L15.5638 10.5501L15.8562 12.3044ZM15.37 12.3549C15.3256 12.3726 15.3143 12.3678 15.4045 12.3551C15.4893 12.3432 15.6065 12.3313 15.7985 12.3121L15.6215 10.5424C15.4446 10.5601 15.2852 10.5759 15.1565 10.594C15.0332 10.6113 14.8714 10.639 14.7106 10.7032L15.37 12.3549ZM15.37 12.3549V12.3549L14.7106 10.7032C13.7817 11.074 13.3411 12.1376 13.7358 13.0567L15.37 12.3549ZM15.6426 12.6882C15.5205 12.5389 15.446 12.4476 15.3945 12.3792C15.3397 12.3064 15.3511 12.3111 15.37 12.3549L13.7358 13.0567C13.8041 13.2157 13.8989 13.3497 13.9738 13.4492C14.052 13.553 14.1536 13.6768 14.2662 13.8144L15.6426 12.6882ZM15.9638 13.1319C15.8729 12.9632 15.7415 12.809 15.6426 12.6882L14.2662 13.8144C14.332 13.8949 14.3674 13.9384 14.3922 13.9709C14.4146 14.0003 14.4095 13.9965 14.3985 13.9762L15.9638 13.1319ZM15.8721 14.9721C16.2428 14.4236 16.2781 13.7146 15.9638 13.1319L14.3985 13.9762L14.3985 13.9762L15.8721 14.9721ZM15.5083 15.3816C15.6187 15.2713 15.7648 15.1309 15.8721 14.9721L14.3985 13.9762C14.4114 13.9571 14.4169 13.9539 14.3917 13.9809C14.3638 14.0108 14.3243 14.0505 14.2507 14.124L15.5083 15.3816ZM15.5083 15.3816L15.5083 15.3816L14.2507 14.124L14.2507 14.124L15.5083 15.3816ZM14.8461 16.0438L15.5083 15.3816L14.2507 14.124L13.5885 14.7862L14.8461 16.0438ZM14.8461 16.0438L14.8461 16.0438L13.5885 14.7862L13.5885 14.7862L14.8461 16.0438ZM14.4364 16.4077C14.5952 16.3004 14.7357 16.1542 14.8461 16.0438L13.5885 14.7862C13.5149 14.8598 13.4752 14.8993 13.4453 14.9273C13.4183 14.9525 13.4216 14.947 13.4406 14.9341L14.4364 16.4077ZM12.5965 16.4995C13.1791 16.8137 13.8879 16.7783 14.4364 16.4077L13.4406 14.9341L13.4406 14.9341L12.5965 16.4995ZM12.1526 16.1782C12.2734 16.277 12.4277 16.4085 12.5965 16.4995L13.4406 14.9341C13.4609 14.945 13.4647 14.9502 13.4353 14.9278C13.4028 14.903 13.3593 14.8676 13.2788 14.8017L12.1526 16.1782ZM12.1464 16.173L12.1464 16.1731L13.285 14.8068L13.285 14.8068L12.1464 16.173ZM12.1821 16.2013L12.1821 16.2013L13.2492 14.7785L13.2492 14.7785L12.1821 16.2013ZM11.8191 15.9053C11.7753 15.8865 11.7706 15.8751 11.8434 15.9299C11.9119 15.9814 12.0032 16.056 12.1525 16.1781L13.2788 14.8016C13.1411 14.689 13.0172 14.5874 12.9134 14.5092C12.8138 14.4342 12.6798 14.3394 12.5207 14.271L11.8191 15.9053ZM11.8191 15.9053H11.8191L12.5207 14.271C11.6017 13.8766 10.5383 14.3171 10.1675 15.2458L11.8191 15.9053ZM11.7763 16.3342C11.7955 16.1421 11.8074 16.0248 11.8193 15.9399C11.832 15.8496 11.8369 15.861 11.8191 15.9053L10.1675 15.2458C10.1032 15.4066 10.0756 15.5685 10.0582 15.6919C10.0401 15.8207 10.0243 15.9802 10.0066 16.1572L11.7763 16.3342ZM11.6895 16.8756C11.7445 16.6919 11.7607 16.4896 11.7763 16.3342L10.0066 16.1572C9.99621 16.2608 9.99051 16.3166 9.98505 16.3572C9.98012 16.3939 9.97913 16.3876 9.98574 16.3655L11.6895 16.8756ZM10.3238 18.1116C10.9735 17.9858 11.4997 17.5096 11.6895 16.8756L9.98575 16.3655V16.3655L10.3238 18.1116ZM9.77649 18.144C9.9327 18.144 10.1355 18.148 10.3238 18.1116L9.98575 16.3655C10.0084 16.3611 10.0146 16.3627 9.97763 16.364C9.93669 16.3654 9.88063 16.3655 9.77649 16.3655V18.144ZM8.84025 18.144H9.77649V16.3655H8.84025V18.144ZM8.29316 18.1116C8.48139 18.148 8.68412 18.144 8.84025 18.144V16.3655C8.73616 16.3655 8.68013 16.3654 8.6392 16.364C8.60227 16.3627 8.60848 16.3611 8.63109 16.3655L8.29316 18.1116ZM6.92728 16.8755C7.11708 17.5096 7.64332 17.9858 8.29316 18.1116L8.63109 16.3655L8.63109 16.3655L6.92728 16.8755ZM6.8406 16.3343C6.85614 16.4897 6.8723 16.6918 6.92728 16.8755L8.63109 16.3655C8.6377 16.3875 8.63671 16.3939 8.63179 16.3573C8.62633 16.3167 8.62064 16.2609 8.61028 16.1574L6.8406 16.3343ZM6.79773 15.9056C6.78002 15.8613 6.78484 15.8499 6.79754 15.9401C6.8095 16.025 6.8214 16.1423 6.8406 16.3343L8.61028 16.1574C8.59258 15.9804 8.57681 15.8209 8.55868 15.6921C8.5413 15.5687 8.51363 15.4069 8.4494 15.246L6.79773 15.9056ZM6.79773 15.9056H6.79773L8.4494 15.246C8.07852 14.3173 7.01516 13.8769 6.09624 14.2713L6.79773 15.9056ZM6.46427 16.1785C6.61362 16.0563 6.70498 15.9817 6.77346 15.9302C6.84624 15.8753 6.84161 15.8868 6.79773 15.9056L6.09624 14.2713C5.93708 14.3396 5.80306 14.4345 5.7035 14.5095C5.59964 14.5877 5.47573 14.6893 5.33805 14.802L6.46427 16.1785ZM6.49193 16.1549L6.49194 16.1548L5.31037 14.8256L5.31036 14.8256L6.49193 16.1549ZM6.02029 16.4998C6.18905 16.4088 6.3434 16.2773 6.46425 16.1785L5.33804 14.802C5.25748 14.8679 5.21403 14.9033 5.18147 14.9281C5.15209 14.9505 5.15588 14.9454 5.17615 14.9344L6.02029 16.4998ZM4.18044 16.4081C4.72887 16.7786 5.43771 16.814 6.02029 16.4998L5.17615 14.9344L5.17615 14.9344L4.18044 16.4081ZM3.77067 16.0441C3.88107 16.1545 4.02157 16.3007 4.18044 16.4081L5.17615 14.9344C5.19524 14.9473 5.19849 14.9528 5.17149 14.9276C5.14157 14.8997 5.10186 14.8601 5.02826 14.7865L3.77067 16.0441ZM3.77065 16.0441L3.77067 16.0441L5.02826 14.7865L5.02825 14.7865L3.77065 16.0441ZM3.10858 15.382L3.77065 16.0441L5.02825 14.7865L4.36618 14.1244L3.10858 15.382ZM3.10857 15.382L3.10858 15.382L4.36618 14.1244L4.36617 14.1244L3.10857 15.382ZM2.74461 14.9722C2.85196 15.1311 2.99817 15.2716 3.10857 15.382L4.36617 14.1244C4.29257 14.0508 4.25303 14.0111 4.22507 13.9812C4.19984 13.9542 4.20537 13.9575 4.21827 13.9765L2.74461 14.9722ZM2.65285 13.1324C2.33871 13.715 2.37406 14.4238 2.74462 14.9722L4.21827 13.9765H4.21827L2.65285 13.1324ZM2.97424 12.6884C2.87536 12.8093 2.74386 12.9636 2.65285 13.1324L4.21827 13.9765C4.20734 13.9968 4.20216 14.0006 4.22458 13.9712C4.24942 13.9387 4.28481 13.8952 4.35073 13.8146L2.97424 12.6884ZM3.24708 12.355C3.26592 12.3111 3.27737 12.3064 3.22255 12.3792C3.17098 12.4477 3.09645 12.5391 2.97424 12.6884L4.35073 13.8146C4.46338 13.677 4.56499 13.553 4.64321 13.4492C4.71819 13.3496 4.81309 13.2156 4.88141 13.0564L3.24708 12.355ZM3.24708 12.355H3.24708L4.88141 13.0564C5.27582 12.1375 4.83537 11.0742 3.90671 10.7033L3.24708 12.355ZM2.81836 12.3121C3.01038 12.3313 3.12769 12.3432 3.21257 12.3551C3.3028 12.3678 3.29144 12.3727 3.24709 12.355L3.9067 10.7033C3.74585 10.6391 3.58398 10.6114 3.46056 10.594C3.33181 10.5759 3.17234 10.5601 2.99533 10.5424L2.81836 12.3121ZM2.27718 12.2254C2.46087 12.2804 2.663 12.2965 2.81836 12.3121L2.99533 10.5424C2.89176 10.532 2.83601 10.5264 2.79543 10.5209C2.7588 10.516 2.76514 10.515 2.78721 10.5216L2.27718 12.2254ZM1.0411 10.8595C1.16687 11.5094 1.6431 12.0356 2.27719 12.2254L2.7872 10.5216L2.7872 10.5216L1.0411 10.8595ZM1.0087 10.3124C1.0087 10.4686 1.00467 10.6713 1.0411 10.8595L2.7872 10.5216C2.79158 10.5442 2.78997 10.5504 2.78871 10.5135C2.78732 10.4726 2.7872 10.4165 2.7872 10.3124H1.0087ZM1.0087 9.37617V10.3124H2.7872V9.37617H1.0087ZM1.04112 8.82888C1.00466 9.01718 1.0087 9.21998 1.0087 9.37617H2.7872C2.7872 9.27205 2.78732 9.21599 2.78871 9.17505C2.78997 9.13811 2.79158 9.14432 2.7872 9.16694L1.04112 8.82888ZM2.27708 7.46316C1.64308 7.65298 1.16692 8.17914 1.04112 8.82888L2.7872 9.16694H2.7872L2.27708 7.46316ZM2.81841 7.37644C2.66301 7.39198 2.46082 7.40815 2.27708 7.46316L2.7872 9.16694C2.76513 9.17355 2.75879 9.17256 2.79542 9.16764C2.83602 9.16218 2.89178 9.15648 2.99539 9.14612L2.81841 7.37644ZM2.83307 7.3751L2.83305 7.3751L2.98075 9.14746L2.98076 9.14746L2.83307 7.3751ZM3.24729 7.33355C3.29165 7.31583 3.30302 7.32066 3.21277 7.33337C3.12786 7.34532 3.01052 7.35723 2.81843 7.37644L2.9954 9.14612C3.17246 9.12841 3.33199 9.11263 3.46078 9.0945C3.58424 9.07711 3.74616 9.04943 3.90706 8.98515L3.24729 7.33355ZM3.24729 7.33355L3.90706 8.98515C4.83557 8.61424 5.27595 7.55106 4.88168 6.63223L3.24729 7.33355ZM2.97433 6.99994C3.09658 7.14936 3.17115 7.24076 3.22274 7.30927C3.27758 7.38209 3.26613 7.37746 3.24729 7.33355L4.88168 6.63223C4.81335 6.473 4.71842 6.33892 4.64342 6.23933C4.56516 6.13543 4.46352 6.01146 4.35082 5.87372L2.97433 6.99994ZM2.65279 6.55572C2.74382 6.72458 2.8754 6.87902 2.97433 6.99994L4.35082 5.87372C4.28487 5.79311 4.24945 5.74964 4.2246 5.71706C4.20217 5.68766 4.20735 5.69144 4.21828 5.71173L2.65279 6.55572ZM2.74454 4.71616C2.3741 5.26452 2.33875 5.97322 2.65279 6.55572L4.21828 5.71173V5.71173L2.74454 4.71616ZM3.10867 4.30616C2.9982 4.41662 2.85192 4.5572 2.74454 4.71616L4.21828 5.71173C4.20538 5.73083 4.19985 5.73408 4.22509 5.70706C4.25306 5.67712 4.29262 5.63739 4.36626 5.56375L3.10867 4.30616ZM3.77066 3.64416L3.10867 4.30616L4.36626 5.56375L5.02826 4.90176L3.77066 3.64416ZM4.18046 3.28019C4.02159 3.38754 3.88107 3.53375 3.77066 3.64416L5.02826 4.90176C5.10186 4.82815 5.14158 4.78861 5.1715 4.76065C5.1985 4.73543 5.19525 4.74095 5.17617 4.75385L4.18046 3.28019ZM6.02029 3.18843C5.43772 2.87429 4.72889 2.90964 4.18046 3.28019L5.17617 4.75385L6.02029 3.18843ZM6.46433 3.50986C6.34346 3.41097 6.18907 3.27944 6.02029 3.18843L5.17617 4.75385C5.15588 4.74291 5.1521 4.73773 5.1815 4.76016C5.21407 4.78501 5.25753 4.82042 5.33812 4.88635L6.46433 3.50986ZM6.79776 3.78266C6.84163 3.8015 6.84626 3.81295 6.77348 3.75813C6.70501 3.70656 6.61366 3.63204 6.46434 3.50987L5.33812 4.88635C5.47577 4.99898 5.59965 5.10056 5.70348 5.17876C5.80299 5.25371 5.93697 5.34859 6.09607 5.4169L6.79776 3.78266ZM6.79776 3.78267V3.78267L6.09606 5.4169C7.0151 5.81151 8.07868 5.37095 8.44951 4.44207L6.79776 3.78267ZM6.84061 3.35415C6.82142 3.54608 6.80952 3.66333 6.79757 3.74817C6.78488 3.83836 6.78006 3.827 6.79776 3.78267L8.44951 4.44207C8.5137 4.28128 8.54134 4.11949 8.55871 3.99613C8.57683 3.86744 8.5926 3.70804 8.61029 3.53112L6.84061 3.35415ZM6.92724 2.81323C6.8723 2.99683 6.85614 3.19886 6.84061 3.35415L8.61029 3.53112C8.62064 3.42759 8.62633 3.37187 8.63179 3.33131C8.63671 3.2947 8.63769 3.30104 8.63109 3.32309L6.92724 2.81323ZM8.2933 1.57696C7.64335 1.70269 7.11702 2.17901 6.92724 2.81323L8.63109 3.32309L8.2933 1.57696ZM8.84016 1.54458C8.6841 1.54458 8.48146 1.54056 8.2933 1.57696L8.63109 3.32309C8.60849 3.32746 8.60229 3.32586 8.6392 3.3246C8.68011 3.32321 8.73612 3.32309 8.84016 3.32309V1.54458ZM9.77659 1.54458H8.84016V3.32309H9.77659V1.54458ZM10.3237 1.57698C10.1354 1.54056 9.93272 1.54458 9.77659 1.54458V3.32309C9.88067 3.32309 9.93671 3.32321 9.97763 3.3246C10.0146 3.32586 10.0084 3.32747 9.98575 3.32309L10.3237 1.57698ZM11.6896 2.81309C11.4998 2.17899 10.9735 1.70275 10.3237 1.57698L9.98574 3.32309V3.32309L11.6896 2.81309ZM11.3833 9.84428C11.3833 10.9902 10.4544 11.9192 9.30841 11.9192V13.6977C11.4366 13.6977 13.1618 11.9725 13.1618 9.84428H11.3833ZM9.30841 7.76935C10.4544 7.76935 11.3833 8.69833 11.3833 9.84428H13.1618C13.1618 7.71608 11.4366 5.99084 9.30841 5.99084V7.76935ZM7.23349 9.84428C7.23349 8.69833 8.16246 7.76935 9.30841 7.76935V5.99084C7.18022 5.99084 5.45498 7.71608 5.45498 9.84428H7.23349ZM9.30841 11.9192C8.16246 11.9192 7.23349 10.9902 7.23349 9.84428H5.45498C5.45498 11.9725 7.18022 13.6977 9.30841 13.6977V11.9192Z" fill="black" fill-opacity="0.6"/>
</svg>
