<svg width="34" height="34" viewBox="0 0 34 34" fill="none" xmlns="http://www.w3.org/2000/svg">
<path fill-rule="evenodd" clip-rule="evenodd" d="M20.3801 2.80097V2.80099L20.4956 3.95549C20.6589 5.58903 20.7406 6.4058 21.2934 6.63478C21.8462 6.86376 22.4815 6.34397 23.7521 5.3044L24.6501 4.5697C25.3158 4.02499 25.6487 3.75264 26.0335 3.77183C26.4184 3.79102 26.7225 4.09515 27.3307 4.7034L29.2965 6.66919C29.9048 7.27745 30.2089 7.58158 30.2281 7.96641C30.2473 8.35125 29.975 8.68413 29.4302 9.34989L28.6955 10.2479C27.6559 11.5185 27.1361 12.1538 27.3651 12.7066C27.5941 13.2594 28.4109 13.3411 30.0444 13.5044L31.199 13.6199C32.0549 13.7055 32.4829 13.7483 32.7415 14.034C33 14.3197 33 14.7498 33 15.61V18.39C33 19.2502 33 19.6803 32.7415 19.966C32.4829 20.2517 32.0549 20.2945 31.199 20.3801H31.199L30.045 20.4955C28.4115 20.6589 27.5947 20.7405 27.3657 21.2933C27.1367 21.8462 27.6565 22.4815 28.6961 23.752L29.4303 24.6494C29.975 25.3152 30.2474 25.648 30.2282 26.0329C30.209 26.4177 29.9049 26.7218 29.2966 27.3301L27.3308 29.2959C26.7226 29.9041 26.4184 30.2083 26.0336 30.2275C25.6488 30.2467 25.3159 29.9743 24.6501 29.4296L23.7522 28.6949C22.4816 27.6553 21.8463 27.1355 21.2935 27.3645C20.7407 27.5935 20.659 28.4103 20.4956 30.0438L20.3801 31.199V31.199C20.2945 32.0549 20.2517 32.4829 19.966 32.7415C19.6803 33 19.2502 33 18.39 33H15.61C14.7498 33 14.3197 33 14.034 32.7415C13.7483 32.4829 13.7055 32.0549 13.6199 31.199L13.5044 30.0444C13.3411 28.4109 13.2594 27.5941 12.7066 27.3651C12.1538 27.1362 11.5185 27.6559 10.2479 28.6955L9.34981 29.4303C8.68405 29.975 8.35117 30.2474 7.96634 30.2282C7.58151 30.209 7.27738 29.9049 6.66913 29.2966L6.66912 29.2966L4.70333 27.3308C4.09508 26.7226 3.79095 26.4184 3.77176 26.0336C3.75256 25.6488 4.02492 25.3159 4.56963 24.6501L5.30439 23.7521C6.34396 22.4815 6.86375 21.8462 6.63477 21.2934C6.40578 20.7406 5.58902 20.6589 3.95548 20.4955L2.80099 20.3801H2.80097C1.94505 20.2945 1.51709 20.2517 1.25855 19.966C1 19.6803 1 19.2502 1 18.39V15.61C1 14.7498 1 14.3197 1.25855 14.034C1.51709 13.7483 1.94506 13.7055 2.80099 13.6199L3.95608 13.5044C5.58962 13.341 6.40639 13.2594 6.63537 12.7065C6.86435 12.1537 6.34456 11.5184 5.30499 10.2478L4.5697 9.34916C4.02499 8.6834 3.75264 8.35052 3.77183 7.96569C3.79102 7.58085 4.09515 7.27672 4.7034 6.66847L6.66919 4.70268C7.27745 4.09443 7.58158 3.7903 7.96641 3.7711C8.35125 3.75191 8.68413 4.02427 9.34988 4.56898L10.248 5.30377C11.5186 6.34335 12.1539 6.86313 12.7067 6.63415C13.2595 6.40517 13.3412 5.5884 13.5045 3.95486L13.6199 2.80099C13.7055 1.94506 13.7483 1.51709 14.034 1.25855C14.3197 1 14.7498 1 15.61 1H18.39C19.2502 1 19.6803 1 19.966 1.25855C20.2517 1.51709 20.2945 1.94505 20.3801 2.80097ZM17 23.4C20.5346 23.4 23.4 20.5346 23.4 17C23.4 13.4654 20.5346 10.6 17 10.6C13.4654 10.6 10.6 13.4654 10.6 17C10.6 20.5346 13.4654 23.4 17 23.4Z" fill="#353535"/>
<path d="M20.3801 2.80099H19.8801V2.82593L19.8826 2.85074L20.3801 2.80099ZM20.3801 2.80097H20.8801V2.77604L20.8776 2.75122L20.3801 2.80097ZM20.4956 3.95549L20.9931 3.90574V3.90574L20.4956 3.95549ZM21.2934 6.63478L21.4847 6.17284L21.2934 6.63478ZM23.7521 5.3044L24.0687 5.69138L24.0687 5.69138L23.7521 5.3044ZM24.6501 4.5697L24.3334 4.18272L24.3334 4.18273L24.6501 4.5697ZM27.3307 4.7034L27.6843 4.34985L27.3307 4.7034ZM29.2965 6.66919L28.943 7.02275L29.2965 6.66919ZM30.2281 7.96641L30.7275 7.94151L30.7275 7.9415L30.2281 7.96641ZM29.4302 9.34989L29.8172 9.6665L29.4302 9.34989ZM28.6955 10.2479L28.3085 9.93127L28.6955 10.2479ZM27.3651 12.7066L26.9032 12.8979L26.9032 12.8979L27.3651 12.7066ZM30.0444 13.5044L29.9947 14.002L30.0444 13.5044ZM31.199 13.6199L31.2488 13.1224L31.199 13.6199ZM32.7415 14.034L33.1122 13.6985V13.6985L32.7415 14.034ZM32.7415 19.966L33.1122 20.3015L32.7415 19.966ZM31.199 20.3801V20.8801H31.224L31.2488 20.8776L31.199 20.3801ZM31.199 20.3801V19.8801H31.1741L31.1493 19.8826L31.199 20.3801ZM30.045 20.4955L30.0948 20.993L30.045 20.4955ZM27.3657 21.2933L26.9038 21.102L26.9038 21.102L27.3657 21.2933ZM28.6961 23.752L28.3091 24.0687L28.6961 23.752ZM29.4303 24.6494L29.8173 24.3328L29.4303 24.6494ZM29.2966 27.3301L29.6502 27.6836L29.2966 27.3301ZM27.3308 29.2959L26.9773 28.9423L27.3308 29.2959ZM26.0336 30.2275L26.0585 30.7268L26.0585 30.7268L26.0336 30.2275ZM24.6501 29.4296L24.3335 29.8166H24.3335L24.6501 29.4296ZM23.7522 28.6949L24.0688 28.3079H24.0688L23.7522 28.6949ZM20.4956 30.0438L20.9931 30.0936L20.4956 30.0438ZM20.3801 31.199L19.8826 31.1493L19.8801 31.1741V31.199H20.3801ZM20.3801 31.199L20.8776 31.2488L20.8801 31.224V31.199H20.3801ZM19.966 32.7415L20.3015 33.1122L19.966 32.7415ZM14.034 32.7415L13.6985 33.1122H13.6985L14.034 32.7415ZM13.6199 31.199L13.1224 31.2488L13.6199 31.199ZM13.5044 30.0444L14.002 29.9947L13.5044 30.0444ZM10.2479 28.6955L10.5645 29.0825L10.2479 28.6955ZM9.34981 29.4303L9.66643 29.8173L9.34981 29.4303ZM7.96634 30.2282L7.94143 30.7276L7.96634 30.2282ZM6.66913 29.2966L6.29284 29.6259L6.30381 29.6384L6.31558 29.6502L6.66913 29.2966ZM6.66912 29.2966L7.04541 28.9674L7.03445 28.9548L7.02268 28.9431L6.66912 29.2966ZM4.70333 27.3308L5.05689 26.9773H5.05688L4.70333 27.3308ZM3.77176 26.0336L3.27238 26.0585L3.77176 26.0336ZM4.56963 24.6501L4.18265 24.3335L4.18265 24.3335L4.56963 24.6501ZM5.30439 23.7521L5.69137 24.0687V24.0687L5.30439 23.7521ZM6.63477 21.2934L6.17283 21.4847L6.63477 21.2934ZM3.95548 20.4955L4.00523 19.998H4.00523L3.95548 20.4955ZM2.80099 20.3801L2.85074 19.8826L2.82593 19.8801H2.80099V20.3801ZM2.80097 20.3801L2.75122 20.8776L2.77604 20.8801H2.80097V20.3801ZM1.25855 19.966L1.62927 19.6305H1.62927L1.25855 19.966ZM1.25855 14.034L0.887821 13.6985H0.887821L1.25855 14.034ZM2.80099 13.6199L2.85074 14.1174L2.80099 13.6199ZM3.95608 13.5044L3.90633 13.0069H3.90633L3.95608 13.5044ZM5.30499 10.2478L4.91801 10.5645L5.30499 10.2478ZM4.5697 9.34916L4.18273 9.66578L4.5697 9.34916ZM4.7034 6.66847L4.34985 6.31492H4.34985L4.7034 6.66847ZM6.66919 4.70268L6.31564 4.34913V4.34913L6.66919 4.70268ZM9.34988 4.56898L9.6665 4.182L9.34988 4.56898ZM10.248 5.30377L9.93134 5.69075L10.248 5.30377ZM13.5045 3.95486L13.007 3.90511V3.90511L13.5045 3.95486ZM13.6199 2.80099L14.1174 2.85075L13.6199 2.80099ZM14.034 1.25855L13.6985 0.887821V0.887822L14.034 1.25855ZM19.966 1.25855L19.6305 1.62927V1.62927L19.966 1.25855ZM20.8801 2.80099V2.80097H19.8801V2.80099H20.8801ZM20.9931 3.90574L20.8776 2.75124L19.8826 2.85074L19.998 4.00524L20.9931 3.90574ZM21.4847 6.17284C21.4335 6.15161 21.3319 6.09169 21.2333 5.69986C21.1346 5.30731 21.0764 4.73941 20.9931 3.90574L19.998 4.00524C20.078 4.80511 20.1424 5.46236 20.2635 5.94383C20.3848 6.426 20.6005 6.88897 21.1021 7.09672L21.4847 6.17284ZM23.4355 4.91742C22.787 5.44796 22.3444 5.80843 21.997 6.01617C21.6502 6.22354 21.536 6.19407 21.4847 6.17284L21.1021 7.09672C21.6036 7.30447 22.0835 7.1296 22.5102 6.87442C22.9363 6.61962 23.4466 6.20041 24.0687 5.69138L23.4355 4.91742ZM24.3334 4.18273L23.4355 4.91742L24.0687 5.69138L24.9667 4.95668L24.3334 4.18273ZM26.0584 3.27245C25.7249 3.25581 25.4429 3.3727 25.1826 3.53503C24.9344 3.6898 24.656 3.91883 24.3334 4.18272L24.9667 4.95668C25.3099 4.67586 25.5308 4.49636 25.7117 4.38358C25.8805 4.27835 25.9574 4.26865 26.0086 4.27121L26.0584 3.27245ZM27.6843 4.34985C27.3896 4.05518 27.1354 3.79958 26.9038 3.62087C26.6609 3.43344 26.392 3.28909 26.0584 3.27245L26.0086 4.27121C26.0599 4.27376 26.1354 4.29107 26.2929 4.41256C26.4616 4.54278 26.6636 4.74338 26.9772 5.05696L27.6843 4.34985ZM29.6501 6.31564L27.6843 4.34985L26.9772 5.05696L28.943 7.02275L29.6501 6.31564ZM30.7275 7.9415C30.7109 7.60792 30.5665 7.33901 30.3791 7.09613C30.2004 6.86454 29.9448 6.61032 29.6501 6.31564L28.943 7.02275C29.2566 7.33633 29.4572 7.5383 29.5874 7.70705C29.7089 7.86449 29.7262 7.94007 29.7287 7.99132L30.7275 7.9415ZM29.8172 9.6665C30.0811 9.34397 30.3101 9.06558 30.4649 8.81736C30.6272 8.55703 30.7441 8.27509 30.7275 7.94151L29.7287 7.99132C29.7313 8.04257 29.7216 8.11949 29.6164 8.28825C29.5036 8.46911 29.3241 8.69004 29.0433 9.03327L29.8172 9.6665ZM29.0825 10.5645L29.8172 9.6665L29.0433 9.03327L28.3085 9.93127L29.0825 10.5645ZM27.8271 12.5153C27.8058 12.464 27.7764 12.3498 27.9837 12.003C28.1915 11.6556 28.5519 11.213 29.0825 10.5645L28.3085 9.93127C27.7995 10.5534 27.3803 11.0637 27.1255 11.4898C26.8703 11.9165 26.6954 12.3964 26.9032 12.8979L27.8271 12.5153ZM30.0942 13.0069C29.2605 12.9236 28.6926 12.8654 28.3001 12.7667C27.9082 12.6681 27.8483 12.5665 27.8271 12.5153L26.9032 12.8979C27.1109 13.3995 27.5739 13.6152 28.0561 13.7365C28.5375 13.8576 29.1948 13.922 29.9947 14.002L30.0942 13.0069ZM31.2488 13.1224L30.0942 13.0069L29.9947 14.002L31.1493 14.1174L31.2488 13.1224ZM33.1122 13.6985C32.8881 13.4508 32.6061 13.3341 32.3072 13.2648C32.0222 13.1988 31.6634 13.1638 31.2488 13.1224L31.1493 14.1174C31.5905 14.1615 31.8737 14.1908 32.0813 14.239C32.275 14.2839 32.3363 14.3314 32.3707 14.3695L33.1122 13.6985ZM33.5 15.61C33.5 15.1932 33.501 14.8327 33.4636 14.5426C33.4244 14.2383 33.3363 13.9461 33.1122 13.6985L32.3707 14.3695C32.4052 14.4075 32.4464 14.4732 32.4718 14.6705C32.499 14.8819 32.5 15.1665 32.5 15.61H33.5ZM33.5 18.39V15.61H32.5V18.39H33.5ZM33.1122 20.3015C33.3363 20.0539 33.4244 19.7617 33.4636 19.4574C33.501 19.1673 33.5 18.8068 33.5 18.39H32.5C32.5 18.8335 32.499 19.1181 32.4718 19.3295C32.4464 19.5268 32.4052 19.5925 32.3707 19.6305L33.1122 20.3015ZM31.2488 20.8776C31.6634 20.8362 32.0222 20.8012 32.3072 20.7352C32.6061 20.6659 32.8881 20.5492 33.1122 20.3015L32.3707 19.6305C32.3363 19.6686 32.275 19.7161 32.0813 19.761C31.8737 19.8092 31.5905 19.8385 31.1493 19.8826L31.2488 20.8776ZM31.199 20.8801H31.199V19.8801H31.199V20.8801ZM30.0948 20.993L31.2488 20.8776L31.1493 19.8826L29.9953 19.998L30.0948 20.993ZM27.8277 21.4847C27.8489 21.4334 27.9088 21.3318 28.3007 21.2333C28.6932 21.1345 29.2611 21.0764 30.0948 20.993L29.9953 19.998C29.1954 20.078 28.5382 20.1424 28.0567 20.2635C27.5745 20.3848 27.1115 20.6004 26.9038 21.102L27.8277 21.4847ZM29.0831 23.4354C28.5525 22.787 28.1921 22.3443 27.9843 21.9969C27.777 21.6501 27.8064 21.5359 27.8277 21.4847L26.9038 21.102C26.696 21.6036 26.8709 22.0834 27.1261 22.5101C27.3809 22.9362 27.8001 23.4465 28.3091 24.0687L29.0831 23.4354ZM29.8173 24.3328L29.0831 23.4354L28.3091 24.0687L29.0433 24.966L29.8173 24.3328ZM30.7276 26.0578C30.7442 25.7242 30.6273 25.4423 30.465 25.1819C30.3102 24.9337 30.0812 24.6553 29.8173 24.3328L29.0433 24.966C29.3242 25.3092 29.5037 25.5302 29.6164 25.711C29.7217 25.8798 29.7314 25.9567 29.7288 26.008L30.7276 26.0578ZM29.6502 27.6836C29.9448 27.389 30.2004 27.1348 30.3791 26.9032C30.5666 26.6603 30.7109 26.3914 30.7276 26.0578L29.7288 26.008C29.7263 26.0592 29.709 26.1348 29.5875 26.2922C29.4572 26.461 29.2566 26.663 28.9431 26.9765L29.6502 27.6836ZM27.6844 29.6494L29.6502 27.6836L28.9431 26.9765L26.9773 28.9423L27.6844 29.6494ZM26.0585 30.7268C26.3921 30.7102 26.661 30.5658 26.9039 30.3784C27.1355 30.1997 27.3897 29.9441 27.6844 29.6494L26.9773 28.9423C26.6637 29.2559 26.4617 29.4565 26.293 29.5867C26.1355 29.7082 26.0599 29.7255 26.0087 29.7281L26.0585 30.7268ZM24.3335 29.8166C24.656 30.0805 24.9344 30.3095 25.1827 30.4643C25.443 30.6266 25.7249 30.7435 26.0585 30.7268L26.0087 29.7281C25.9575 29.7306 25.8805 29.7209 25.7118 29.6157C25.5309 29.5029 25.31 29.3234 24.9667 29.0426L24.3335 29.8166ZM23.4355 29.0819L24.3335 29.8166L24.9668 29.0426L24.0688 28.3079L23.4355 29.0819ZM21.4848 27.8265C21.5361 27.8052 21.6503 27.7758 21.997 27.9831C22.3444 28.1909 22.7871 28.5513 23.4356 29.0819L24.0688 28.3079C23.4466 27.7989 22.9364 27.3797 22.5103 27.1249C22.0835 26.8697 21.6037 26.6948 21.1021 26.9026L21.4848 27.8265ZM20.9931 30.0936C21.0765 29.2599 21.1346 28.692 21.2334 28.2994C21.332 27.9076 21.4335 27.8477 21.4848 27.8265L21.1021 26.9026C20.6006 27.1103 20.3849 27.5733 20.2636 28.0555C20.1425 28.5369 20.0781 29.1942 19.9981 29.994L20.9931 30.0936ZM20.8776 31.2488L20.9931 30.0936L19.9981 29.994L19.8826 31.1493L20.8776 31.2488ZM20.8801 31.199V31.199H19.8801V31.199H20.8801ZM20.3015 33.1122C20.5492 32.8881 20.6659 32.6061 20.7352 32.3072C20.8012 32.0222 20.8362 31.6634 20.8776 31.2488L19.8826 31.1493C19.8385 31.5905 19.8092 31.8737 19.761 32.0813C19.7161 32.275 19.6686 32.3363 19.6305 32.3707L20.3015 33.1122ZM18.39 33.5C18.8068 33.5 19.1673 33.501 19.4574 33.4636C19.7617 33.4244 20.0539 33.3363 20.3015 33.1122L19.6305 32.3707C19.5925 32.4052 19.5268 32.4464 19.3296 32.4718C19.1182 32.499 18.8335 32.5 18.39 32.5V33.5ZM15.61 33.5H18.39V32.5H15.61V33.5ZM13.6985 33.1122C13.9461 33.3363 14.2383 33.4244 14.5426 33.4636C14.8327 33.501 15.1932 33.5 15.61 33.5V32.5C15.1665 32.5 14.8819 32.499 14.6705 32.4718C14.4732 32.4464 14.4075 32.4052 14.3695 32.3707L13.6985 33.1122ZM13.1224 31.2488C13.1638 31.6634 13.1988 32.0222 13.2648 32.3072C13.3341 32.6061 13.4508 32.8881 13.6985 33.1122L14.3695 32.3707C14.3314 32.3363 14.2839 32.275 14.239 32.0813C14.1908 31.8737 14.1615 31.5905 14.1174 31.1493L13.1224 31.2488ZM13.0069 30.0942L13.1224 31.2488L14.1174 31.1493L14.002 29.9947L13.0069 30.0942ZM12.5153 27.8271C12.5665 27.8483 12.6681 27.9082 12.7667 28.3001C12.8654 28.6926 12.9236 29.2605 13.0069 30.0942L14.002 29.9947C13.922 29.1948 13.8576 28.5376 13.7365 28.0561C13.6152 27.5739 13.3995 27.1109 12.8979 26.9032L12.5153 27.8271ZM10.5645 29.0825C11.213 28.552 11.6556 28.1915 12.003 27.9837C12.3498 27.7764 12.464 27.8058 12.5153 27.8271L12.8979 26.9032C12.3964 26.6954 11.9165 26.8703 11.4898 27.1255C11.0637 27.3803 10.5534 27.7995 9.93127 28.3085L10.5645 29.0825ZM9.66643 29.8173L10.5645 29.0825L9.93127 28.3085L9.03319 29.0433L9.66643 29.8173ZM7.94143 30.7276C8.27502 30.7442 8.55695 30.6273 8.81728 30.465C9.06551 30.3102 9.3439 30.0812 9.66643 29.8173L9.03319 29.0433C8.68997 29.3242 8.46904 29.5037 8.28817 29.6164C8.11942 29.7217 8.04249 29.7314 7.99124 29.7288L7.94143 30.7276ZM6.31558 29.6502C6.61025 29.9448 6.86447 30.2004 7.09606 30.3791C7.33894 30.5666 7.60785 30.7109 7.94143 30.7276L7.99124 29.7288C7.94 29.7263 7.86442 29.709 7.70698 29.5875C7.53823 29.4572 7.33626 29.2566 7.02269 28.9431L6.31558 29.6502ZM6.29283 29.6259L6.29284 29.6259L7.04542 28.9674L7.04541 28.9674L6.29283 29.6259ZM4.34978 27.6844L6.31557 29.6502L7.02268 28.9431L5.05689 26.9773L4.34978 27.6844ZM3.27238 26.0585C3.28901 26.3921 3.43337 26.661 3.6208 26.9039C3.79951 27.1355 4.0551 27.3897 4.34978 27.6844L5.05688 26.9773C4.74331 26.6637 4.54271 26.4617 4.41249 26.293C4.29099 26.1355 4.27369 26.0599 4.27114 26.0087L3.27238 26.0585ZM4.18265 24.3335C3.91876 24.656 3.68973 24.9344 3.53495 25.1827C3.37262 25.443 3.25574 25.7249 3.27238 26.0585L4.27114 26.0087C4.26858 25.9575 4.27828 25.8805 4.3835 25.7118C4.49628 25.5309 4.67579 25.31 4.95661 24.9667L4.18265 24.3335ZM4.91741 23.4355L4.18265 24.3335L4.95661 24.9668L5.69137 24.0687L4.91741 23.4355ZM6.17283 21.4847C6.19406 21.536 6.22353 21.6502 6.01616 21.997C5.80842 22.3444 5.44795 22.787 4.91741 23.4355L5.69137 24.0687C6.2004 23.4466 6.61961 22.9363 6.87441 22.5102C7.12959 22.0835 7.30446 21.6036 7.09671 21.1021L6.17283 21.4847ZM3.90573 20.9931C4.7394 21.0764 5.3073 21.1346 5.69984 21.2333C6.09168 21.3319 6.1516 21.4335 6.17283 21.4847L7.09671 21.1021C6.88896 20.6005 6.42599 20.3848 5.94382 20.2635C5.46235 20.1424 4.8051 20.078 4.00523 19.998L3.90573 20.9931ZM2.75124 20.8776L3.90573 20.9931L4.00523 19.998L2.85074 19.8826L2.75124 20.8776ZM2.80097 20.8801H2.80099V19.8801H2.80097V20.8801ZM0.887821 20.3015C1.11194 20.5492 1.39394 20.6659 1.69281 20.7352C1.97777 20.8012 2.33656 20.8361 2.75122 20.8776L2.85073 19.8826C2.40947 19.8385 2.12632 19.8092 1.91869 19.761C1.72495 19.7161 1.6637 19.6686 1.62927 19.6305L0.887821 20.3015ZM0.5 18.39C0.5 18.8068 0.499029 19.1672 0.53642 19.4574C0.575636 19.7617 0.663704 20.0539 0.887821 20.3015L1.62927 19.6305C1.59484 19.5925 1.55364 19.5268 1.52822 19.3295C1.50097 19.1181 1.5 18.8335 1.5 18.39H0.5ZM0.5 15.61V18.39H1.5V15.61H0.5ZM0.887821 13.6985C0.663704 13.9461 0.575636 14.2383 0.53642 14.5426C0.499029 14.8327 0.5 15.1932 0.5 15.61H1.5C1.5 15.1665 1.50097 14.8818 1.52822 14.6704C1.55364 14.4732 1.59484 14.4075 1.62927 14.3695L0.887821 13.6985ZM2.75124 13.1224C2.33658 13.1638 1.97777 13.1988 1.69281 13.2648C1.39394 13.3341 1.11194 13.4508 0.887821 13.6985L1.62927 14.3695C1.6637 14.3314 1.72495 14.2839 1.91869 14.239C2.12633 14.1908 2.40948 14.1615 2.85074 14.1174L2.75124 13.1224ZM3.90633 13.0069L2.75124 13.1224L2.85074 14.1174L4.00583 14.0019L3.90633 13.0069ZM6.17343 12.5152C6.1522 12.5665 6.09228 12.668 5.70045 12.7666C5.3079 12.8654 4.74 12.9235 3.90633 13.0069L4.00583 14.0019C4.8057 13.9219 5.46295 13.8575 5.94442 13.7364C6.4266 13.6151 6.88956 13.3994 7.09731 12.8979L6.17343 12.5152ZM4.91801 10.5645C5.44855 11.2129 5.80902 11.6556 6.01676 12.003C6.22413 12.3497 6.19466 12.4639 6.17343 12.5152L7.09731 12.8979C7.30506 12.3963 7.13019 11.9165 6.87502 11.4897C6.62021 11.0636 6.201 10.5534 5.69197 9.93122L4.91801 10.5645ZM4.18273 9.66578L4.91801 10.5645L5.69197 9.93122L4.95668 9.03254L4.18273 9.66578ZM3.27245 7.94078C3.25581 8.27437 3.3727 8.5563 3.53503 8.81663C3.6898 9.06485 3.91883 9.34325 4.18273 9.66578L4.95668 9.03254C4.67586 8.68932 4.49636 8.46839 4.38358 8.28752C4.27835 8.11876 4.26865 8.04184 4.27121 7.99059L3.27245 7.94078ZM4.34985 6.31492C4.05518 6.60959 3.79958 6.86381 3.62087 7.0954C3.43345 7.33829 3.28909 7.60719 3.27245 7.94078L4.27121 7.99059C4.27376 7.93935 4.29107 7.86377 4.41256 7.70632C4.54278 7.53757 4.74338 7.3356 5.05696 7.02202L4.34985 6.31492ZM6.31564 4.34913L4.34985 6.31492L5.05696 7.02202L7.02275 5.05623L6.31564 4.34913ZM7.94151 3.27172C7.60792 3.28836 7.33901 3.43272 7.09613 3.62015C6.86454 3.79886 6.61032 4.05445 6.31564 4.34913L7.02275 5.05623C7.33633 4.74265 7.5383 4.54206 7.70705 4.41184C7.86449 4.29034 7.94007 4.27304 7.99132 4.27048L7.94151 3.27172ZM9.6665 4.182C9.34397 3.91811 9.06558 3.68908 8.81736 3.5343C8.55703 3.37197 8.27509 3.25509 7.94151 3.27172L7.99132 4.27048C8.04257 4.26793 8.11949 4.27762 8.28825 4.38285C8.46911 4.49563 8.69004 4.67514 9.03327 4.95596L9.6665 4.182ZM10.5646 4.91679L9.6665 4.182L9.03327 4.95596L9.93134 5.69075L10.5646 4.91679ZM12.5153 6.17221C12.4641 6.19344 12.3499 6.22291 12.0031 6.01554C11.6557 5.8078 11.213 5.44733 10.5646 4.91679L9.93134 5.69075C10.5535 6.19978 11.0638 6.619 11.4899 6.8738C11.9166 7.12897 12.3965 7.30384 12.898 7.09609L12.5153 6.17221ZM13.007 3.90511C12.9236 4.73878 12.8655 5.30668 12.7667 5.69923C12.6682 6.09106 12.5666 6.15098 12.5153 6.17221L12.898 7.09609C13.3996 6.88834 13.6152 6.42538 13.7365 5.9432C13.8577 5.46173 13.922 4.80448 14.002 4.00461L13.007 3.90511ZM13.1224 2.75124L13.007 3.90511L14.002 4.00461L14.1174 2.85075L13.1224 2.75124ZM13.6985 0.887822C13.4508 1.11194 13.3341 1.39395 13.2648 1.69281C13.1988 1.97778 13.1638 2.33658 13.1224 2.75124L14.1174 2.85075C14.1615 2.40948 14.1908 2.12633 14.239 1.91869C14.2839 1.72495 14.3314 1.6637 14.3695 1.62927L13.6985 0.887822ZM15.61 0.5C15.1932 0.5 14.8327 0.499029 14.5426 0.53642C14.2383 0.575636 13.9461 0.663704 13.6985 0.887821L14.3695 1.62927C14.4075 1.59484 14.4732 1.55364 14.6705 1.52822C14.8819 1.50097 15.1665 1.5 15.61 1.5V0.5ZM18.39 0.5H15.61V1.5H18.39V0.5ZM20.3015 0.887821C20.0539 0.663704 19.7617 0.575636 19.4574 0.53642C19.1673 0.499029 18.8068 0.5 18.39 0.5V1.5C18.8335 1.5 19.1181 1.50097 19.3295 1.52822C19.5268 1.55364 19.5925 1.59484 19.6305 1.62927L20.3015 0.887821ZM20.8776 2.75122C20.8362 2.33656 20.8012 1.97777 20.7352 1.69281C20.6659 1.39394 20.5492 1.11194 20.3015 0.887821L19.6305 1.62927C19.6686 1.6637 19.7161 1.72495 19.761 1.91869C19.8092 2.12632 19.8385 2.40947 19.8826 2.85073L20.8776 2.75122ZM22.9 17C22.9 20.2585 20.2585 22.9 17 22.9V23.9C20.8108 23.9 23.9 20.8108 23.9 17H22.9ZM17 11.1C20.2585 11.1 22.9 13.7415 22.9 17H23.9C23.9 13.1892 20.8108 10.1 17 10.1V11.1ZM11.1 17C11.1 13.7415 13.7415 11.1 17 11.1V10.1C13.1892 10.1 10.1 13.1892 10.1 17H11.1ZM17 22.9C13.7415 22.9 11.1 20.2585 11.1 17H10.1C10.1 20.8108 13.1892 23.9 17 23.9V22.9Z" fill="#353535"/>
</svg>
