<svg width="146" height="72" viewBox="0 0 146 72" fill="none" xmlns="http://www.w3.org/2000/svg">
<path fill-rule="evenodd" clip-rule="evenodd" d="M145.057 0.818162C144.68 0.698517 144.268 0.703151 143.885 0.842559L135.215 3.99508C134.962 4.08705 134.733 4.23395 134.543 4.42521L129.663 9.35505C129.126 9.89732 128.308 10.0473 127.613 9.73074L123.199 7.71835C122.198 7.26167 121.023 7.79142 120.702 8.84451L116.719 21.9204C116.292 23.3215 114.47 23.6708 113.555 22.5269L110.271 18.4209C109.761 17.7823 108.761 17.8824 108.387 18.6097C108.071 19.2255 107.279 19.4133 106.72 19.0052L105.699 18.2604C104.822 17.6206 103.583 17.8856 103.045 18.8284L100.071 24.0347C99.6682 24.7393 98.8479 25.0926 98.0594 24.9008L95.4829 24.2744C94.5382 24.0447 93.5797 24.5976 93.3057 25.5305L88.4473 42.0689C88.2907 42.6021 87.8992 43.0346 87.3842 43.2433L81.2973 45.71C80.4455 46.0552 79.4699 45.7114 79.0226 44.9084L75.3986 38.4011C74.6911 37.1307 72.8533 37.1613 72.1884 38.4546L71.2716 40.2381C71.0621 40.6456 70.7066 40.9592 70.2761 41.1162L66.1667 42.615C65.6501 42.8034 65.2463 43.2152 65.0681 43.7353L62.3982 51.5257C62.2027 52.096 61.7376 52.5326 61.1561 52.6917L55.224 54.3144C54.8355 54.4207 54.4931 54.6528 54.2506 54.9745L50.8392 59.499C50.1452 60.4194 48.7814 60.4715 48.0192 59.6067L46.3461 57.7082C45.7454 57.0266 44.7342 56.8921 43.9762 57.393L34.6744 63.5396C34.0505 63.9519 33.238 63.9408 32.6256 63.5116L30.5098 62.0288C29.8722 61.5818 29.0208 61.5899 28.3917 62.0488L26.1926 63.653C25.881 63.8803 25.5053 64.0028 25.1195 64.0028H19.0079C18.524 64.0028 18.06 63.8102 17.7184 63.4675L12.2444 57.9771C11.4721 57.2025 10.1961 57.2787 9.52153 58.1398L7.60723 60.5835C7.26209 61.0241 6.7335 61.2815 6.17382 61.2815H0.998352V69.6854C0.998352 70.6911 1.81357 71.5063 2.8192 71.5063H145.057V0.818162Z" fill="url(#paint0_linear_69_213)"/>
<defs>
<linearGradient id="paint0_linear_69_213" x1="77.4742" y1="4.13472" x2="77.4742" y2="71.5062" gradientUnits="userSpaceOnUse">
<stop stop-color="#61FF00" stop-opacity="0.2"/>
<stop offset="1" stop-color="#74FF06" stop-opacity="0"/>
</linearGradient>
</defs>
</svg>
