<svg width="19" height="19" viewBox="0 0 19 19" fill="none" xmlns="http://www.w3.org/2000/svg">
<path d="M9.48229 0.955447C11.2751 0.955479 13.026 1.49753 14.5053 2.51047C15.9845 3.52341 17.123 4.9599 17.7712 6.63142C18.4195 8.30295 18.5472 10.1314 18.1377 11.8768C17.7282 13.6223 16.8006 15.2031 15.4766 16.4119C14.1526 17.6207 12.494 18.401 10.7186 18.6503C8.94321 18.8997 7.1339 18.6064 5.52814 17.8091C3.92238 17.0117 2.59518 15.7476 1.72074 14.1825C0.846295 12.6174 0.465457 10.8244 0.628206 9.03901C0.639881 8.90981 0.676892 8.78416 0.737124 8.66926C0.797356 8.55435 0.87963 8.45244 0.979249 8.36933C1.07887 8.28622 1.19388 8.22355 1.31772 8.18489C1.44156 8.14623 1.5718 8.13235 1.70101 8.14402C1.83022 8.1557 1.95586 8.19271 2.07076 8.25294C2.18567 8.31317 2.28758 8.39545 2.37069 8.49506C2.4538 8.59468 2.51647 8.7097 2.55513 8.83354C2.59379 8.95738 2.60768 9.08762 2.596 9.21683C2.50101 10.2271 2.63076 11.2458 2.97592 12.2C3.32109 13.1542 3.87312 14.0202 4.59244 14.7359C4.96289 15.1064 5.37482 15.4343 5.81935 15.7119C6.92032 16.3992 8.1925 16.7628 9.49039 16.7611C10.7883 16.7594 12.0595 16.3924 13.1586 15.7022C14.2578 15.012 15.1405 14.0263 15.7058 12.858C16.2711 11.6897 16.4962 10.3859 16.3553 9.09566C16.2145 7.80543 15.7133 6.58089 14.9092 5.56209C14.1051 4.54329 13.0305 3.77136 11.8083 3.33457C10.5861 2.89779 9.26569 2.81379 7.99801 3.09218C6.73032 3.37058 5.56657 4.00012 4.63986 4.90882L6.02285 4.9098C6.27607 4.90807 6.52029 5.00365 6.70506 5.17681C6.88984 5.34996 7.00107 5.58746 7.01578 5.84026C7.03048 6.09306 6.94755 6.34186 6.78409 6.53527C6.62064 6.72868 6.38915 6.85193 6.13744 6.87957L6.02285 6.8855H2.06948C1.82752 6.88547 1.59399 6.79664 1.41318 6.63586C1.23237 6.47508 1.11685 6.25353 1.08854 6.01323L1.08163 5.89765V1.94626C1.0799 1.69304 1.17548 1.44882 1.34863 1.26404C1.52178 1.07926 1.75928 0.968035 2.01208 0.953329C2.26488 0.938622 2.51368 1.02156 2.70709 1.18501C2.9005 1.34847 3.02375 1.57995 3.0514 1.83167L3.05733 1.94725V3.69969C3.88685 2.83132 4.88399 2.14037 5.98838 1.66866C7.09276 1.19696 8.28139 0.954319 9.48229 0.955447ZM8.74141 4.90684C8.92044 4.90685 9.09342 4.97169 9.22835 5.08936C9.36328 5.20704 9.45103 5.3696 9.47538 5.54697L9.48229 5.64773V9.84609H11.705C11.8927 9.84614 12.0734 9.91745 12.2105 10.0456C12.3477 10.1738 12.4311 10.3492 12.4439 10.5365C12.4567 10.7238 12.3979 10.9089 12.2795 11.0545C12.161 11.2001 11.9917 11.2954 11.8057 11.3209L11.705 11.3279H8.74141C8.56237 11.3279 8.38939 11.263 8.25447 11.1453C8.11954 11.0277 8.03178 10.8651 8.00743 10.6877L8.00052 10.587V5.64773C8.00052 5.45123 8.07858 5.26278 8.21752 5.12384C8.35646 4.9849 8.54491 4.90684 8.74141 4.90684Z" fill="black" fill-opacity="0.6"/>
</svg>
