<svg width="32" height="32" viewBox="0 0 32 32" fill="none" xmlns="http://www.w3.org/2000/svg">
<path fill-rule="evenodd" clip-rule="evenodd" d="M16.1682 31.4413C24.7629 31.4413 31.7301 24.4739 31.7301 15.8793C31.7301 7.2847 24.7629 0.317383 16.1682 0.317383C7.57357 0.317383 0.606262 7.2847 0.606262 15.8793C0.606262 24.4739 7.57357 31.4413 16.1682 31.4413ZM18.5702 12.341C19.8967 11.0144 19.8967 8.86366 18.5702 7.53708C17.2436 6.21052 15.0929 6.21052 13.7663 7.53708C12.4398 8.86366 12.4398 11.0144 13.7663 12.341L16.1682 14.7429L18.5702 12.341ZM19.7066 18.2813C21.0332 19.6079 23.1839 19.6079 24.5105 18.2813C25.837 16.9547 25.837 14.804 24.5105 13.4774C23.1839 12.1509 21.0332 12.1509 19.7066 13.4774L17.3047 15.8794L19.7066 18.2813ZM18.5702 24.2216C19.8967 22.895 19.8967 20.7443 18.5702 19.4177L16.1682 17.0158L13.7663 19.4177C12.4398 20.7443 12.4398 22.895 13.7663 24.2216C15.0929 25.5482 17.2436 25.5482 18.5702 24.2216ZM7.82594 18.2813C6.49941 16.9547 6.49941 14.804 7.82594 13.4774C9.15254 12.1509 11.3033 12.1509 12.6299 13.4774L15.0318 15.8794L12.6299 18.2813C11.3033 19.6079 9.15254 19.6079 7.82594 18.2813Z" fill="#592ADD"/>
</svg>
